{
	"asset":{
		"generator":"Khronos glTF Blender I/O v3.6.28",
		"version":"2.0"
	},
	"extensionsUsed":[
		"KHR_materials_specular",
		"KHR_materials_transmission"
	],
	"scene":0,
	"scenes":[
		{
			"name":"Scene",
			"nodes":[
				0,
				1
			]
		}
	],
	"nodes":[
		{
			"mesh":0,
			"name":"065X-AB-3D2503(1)",
			"rotation":[
				0.7071068286895752,
				0,
				0,
				0.7071068286895752
			]
		},
		{
			"mesh":1,
			"name":"Body1",
			"rotation":[
				0.7071068286895752,
				0,
				0,
				0.7071068286895752
			],
			"scale":[
				0.010000000707805157,
				0.010000000707805157,
				0.010000000707805157
			]
		}
	],
	"materials":[
		{
			"doubleSided":true,
			"extensions":{
				"KHR_materials_specular":{
					"specularColorFactor":[
						0,
						0,
						0
					]
				}
			},
			"name":"HP_3D_HR_CB_PA_12_(HP_Jet_Fusion_580_\u30ab\u30e9\u30fc_3D_\u30d7\u30ea\u30f3\u30bf",
			"pbrMetallicRoughness":{
				"baseColorFactor":[
					0.8999999761581421,
					0.8999999761581421,
					0.8999999761581421,
					1
				],
				"metallicFactor":0,
				"roughnessFactor":0.699999988079071
			}
		},
		{
			"alphaMode":"BLEND",
			"doubleSided":true,
			"extensions":{
				"KHR_materials_transmission":{
					"transmissionFactor":1
				},
				"KHR_materials_specular":{
					"specularColorFactor":[
						1,
						1,
						1
					]
				}
			},
			"name":"\u30dd\u30ea\u30ab\u30fc\u30dc\u30cd\u30fc\u30c8(\u30af\u30ea\u30a2)",
			"pbrMetallicRoughness":{
				"metallicFactor":0,
				"roughnessFactor":0.10000000149011612
			}
		},
		{
			"alphaMode":"BLEND",
			"doubleSided":true,
			"extensions":{
				"KHR_materials_transmission":{
					"transmissionFactor":1
				},
				"KHR_materials_specular":{
					"specularColorFactor":[
						1,
						1,
						1
					]
				}
			},
			"name":"Polycarbonate (Clear)",
			"pbrMetallicRoughness":{
				"metallicFactor":0,
				"roughnessFactor":0.10000000149011612
			}
		}
	],
	"meshes":[
		{
			"name":"065X-AB-3D2503(1)",
			"primitives":[
				{
					"attributes":{
						"POSITION":0,
						"NORMAL":1,
						"TEXCOORD_0":2
					},
					"indices":3,
					"material":0
				},
				{
					"attributes":{
						"POSITION":4,
						"NORMAL":5,
						"TEXCOORD_0":6
					},
					"indices":7,
					"material":1
				}
			]
		},
		{
			"name":"Body1",
			"primitives":[
				{
					"attributes":{
						"POSITION":8,
						"NORMAL":9,
						"TEXCOORD_0":10
					},
					"indices":11,
					"material":2
				}
			]
		}
	],
	"accessors":[
		{
			"bufferView":0,
			"componentType":5126,
			"count":19874,
			"max":[
				51.58498764038086,
				2.950004816055298,
				-60.6192512512207
			],
			"min":[
				43.595516204833984,
				-2.949995279312134,
				-68.59923553466797
			],
			"type":"VEC3"
		},
		{
			"bufferView":1,
			"componentType":5126,
			"count":19874,
			"type":"VEC3"
		},
		{
			"bufferView":2,
			"componentType":5126,
			"count":19874,
			"type":"VEC2"
		},
		{
			"bufferView":3,
			"componentType":5123,
			"count":72558,
			"type":"SCALAR"
		},
		{
			"bufferView":4,
			"componentType":5126,
			"count":40,
			"max":[
				51.24434280395508,
				2.950004816055298,
				-60.95988845825195
			],
			"min":[
				43.94564437866211,
				2.950004816055298,
				-68.25859069824219
			],
			"type":"VEC3"
		},
		{
			"bufferView":5,
			"componentType":5126,
			"count":40,
			"type":"VEC3"
		},
		{
			"bufferView":6,
			"componentType":5126,
			"count":40,
			"type":"VEC2"
		},
		{
			"bufferView":7,
			"componentType":5123,
			"count":114,
			"type":"SCALAR"
		},
		{
			"bufferView":8,
			"componentType":5126,
			"count":27619,
			"max":[
				97.12147521972656,
				2.619999885559082,
				-59.566246032714844
			],
			"min":[
				89.12200164794922,
				-3.2800002098083496,
				-67.56624603271484
			],
			"type":"VEC3"
		},
		{
			"bufferView":9,
			"componentType":5126,
			"count":27619,
			"type":"VEC3"
		},
		{
			"bufferView":10,
			"componentType":5126,
			"count":27619,
			"type":"VEC2"
		},
		{
			"bufferView":11,
			"componentType":5123,
			"count":106374,
			"type":"SCALAR"
		}
	],
	"bufferViews":[
		{
			"buffer":0,
			"byteLength":238488,
			"byteOffset":0,
			"target":34962
		},
		{
			"buffer":0,
			"byteLength":238488,
			"byteOffset":238488,
			"target":34962
		},
		{
			"buffer":0,
			"byteLength":158992,
			"byteOffset":476976,
			"target":34962
		},
		{
			"buffer":0,
			"byteLength":145116,
			"byteOffset":635968,
			"target":34963
		},
		{
			"buffer":0,
			"byteLength":480,
			"byteOffset":781084,
			"target":34962
		},
		{
			"buffer":0,
			"byteLength":480,
			"byteOffset":781564,
			"target":34962
		},
		{
			"buffer":0,
			"byteLength":320,
			"byteOffset":782044,
			"target":34962
		},
		{
			"buffer":0,
			"byteLength":228,
			"byteOffset":782364,
			"target":34963
		},
		{
			"buffer":0,
			"byteLength":331428,
			"byteOffset":782592,
			"target":34962
		},
		{
			"buffer":0,
			"byteLength":331428,
			"byteOffset":1114020,
			"target":34962
		},
		{
			"buffer":0,
			"byteLength":220952,
			"byteOffset":1445448,
			"target":34962
		},
		{
			"buffer":0,
			"byteLength":212748,
			"byteOffset":1666400,
			"target":34963
		}
	],
	"buffers":[
		{
			"byteLength":1879148,
			"uri":"final_product_model.bin"
		}
	]
}
